<svg width="87" height="79" viewBox="0 0 87 79" fill="none" xmlns="http://www.w3.org/2000/svg">
<path d="M9.18357 78.9103H77.429C82.8387 78.9103 87 74.4761 87 68.7116V11.5098C87 2.19785 77.0129 -3.12325 70.3548 2.64127L45.8031 16.8309C44.5547 17.7177 42.474 17.7177 41.2256 16.8309L16.6739 2.19785C9.5997 -3.12325 0.0286932 1.75442 0.0286932 11.0663V68.2682C-0.387437 74.0327 3.77387 78.9103 9.18357 78.9103Z" fill="#1C74F1"/>
<path d="M71.186 71.3722H15.0083C10.4308 71.3722 6.26953 67.3814 6.26953 62.0603V36.3417C6.26953 31.464 10.0147 27.0298 15.0083 27.0298H71.186C75.7634 27.0298 79.9247 31.0206 79.9247 36.3417V62.0603C79.9247 67.3814 76.1795 71.3722 71.186 71.3722Z" fill="#333333"/>
<path d="M25.8284 36.7855C28.3252 36.7855 30.8219 37.6724 32.4865 39.8895C34.151 42.1066 35.3994 44.3237 35.3994 46.9843C35.3994 52.7488 31.2381 57.1831 25.8284 57.1831C20.4187 57.1831 16.2574 52.7488 16.2574 46.9843C16.2574 41.2198 20.4187 36.7855 25.8284 36.7855ZM25.8284 31.021C17.5058 31.021 11.2638 38.1158 10.8477 46.5409C10.8477 55.4094 17.5058 62.5042 25.4122 62.5042C33.7349 62.5042 39.9768 55.4094 40.393 46.9843C40.8091 37.6724 34.151 31.021 25.8284 31.021Z" fill="white"/>
<path d="M60.7815 36.785C66.1912 36.785 70.3525 41.2193 70.3525 46.9838C70.3525 52.7483 66.1912 57.1826 60.7815 57.1826C55.3718 57.1826 51.2105 52.7483 51.2105 46.9838C51.2105 41.2193 55.3718 36.785 60.7815 36.785ZM60.7815 31.0205C52.4589 31.0205 46.2169 38.1153 45.8008 46.5404C45.8008 55.4089 52.4589 62.5037 60.3654 62.5037C68.688 62.5037 74.93 55.4089 75.3461 46.9838C75.7622 38.1153 69.1041 31.0205 60.7815 31.0205Z" fill="white"/>
<path d="M36.3155 67.4954C39.0448 68.822 42.0471 69.4607 45.0493 69.2642C47.9606 69.1168 51.0538 68.2815 53.4193 66.3653C54.2835 65.6775 54.7839 64.4 54.1471 63.3191C53.6012 62.3856 52.282 61.796 51.3268 62.533C50.8264 62.926 50.2805 63.27 49.7347 63.6139C49.5982 63.7122 49.4617 63.7613 49.3253 63.8596C48.9614 64.0561 49.5527 63.7613 49.2798 63.8596C49.0068 63.9578 48.7339 64.1052 48.461 64.2035C47.8241 64.4 47.1873 64.5965 46.5505 64.6948C46.3685 64.7439 46.232 64.7439 46.0501 64.7931C46.323 64.7439 46.232 64.7439 46.0046 64.7931C45.6862 64.8422 45.3223 64.8422 45.0038 64.8913C44.367 64.9405 43.7302 64.9405 43.0933 64.8913C42.7749 64.8913 42.411 64.8422 42.0926 64.7931C41.6832 64.7439 42.32 64.8422 42.0471 64.7931C41.8651 64.7439 41.7286 64.7439 41.5467 64.6948C40.9553 64.5965 40.3185 64.4491 39.7271 64.2526C39.4087 64.1543 39.1358 64.0561 38.8174 63.9578C38.6809 63.9087 38.5899 63.8596 38.4535 63.8104C37.9531 63.6139 38.6809 63.9087 38.317 63.7613C37.3617 63.27 36.088 63.4174 35.4967 64.5474C35.1328 65.4318 35.2692 67.004 36.3155 67.4954Z" fill="white"/>
</svg>
